<?xml version="1.0" encoding="UTF-8" standalone="yes"?>
<svg xmlns="http://www.w3.org/2000/svg" viewBox="0 0 50 50" width="150" height="150" fill="#000000">
  <path d="M 44.089844 4 L 5.910156 4 C 4.804688 4 4 4.804688 4 5.910156 L 4 44.089844 C 4 45.195313 4.804688 46 5.910156 46 L 44.089844 46 C 45.195313 46 46 45.195313 46 44.089844 L 46 5.910156 C 46 4.804688 45.195313 4 44.089844 4 Z M 20.574219 28.40625 C 20.90625 28.40625 21.28125 28.328125 21.519531 28.253906 L 21.714844 29.90625 C 21.429688 30.039063 20.875 30.144531 20.183594 30.144531 C 17.605469 30.144531 16.375 28.015625 16.375 25.148438 C 16.375 21.339844 18.488281 19.855469 20.453125 19.855469 C 21.144531 19.855469 21.625 19.988281 21.820313 20.125 L 21.488281 21.773438 C 21.265625 21.671875 21.011719 21.578125 20.574219 21.578125 C 19.464844 21.578125 18.460938 22.539063 18.460938 25.046875 C 18.460938 27.460938 19.375 28.40625 20.574219 28.40625 Z M 24.21875 30.144531 C 23.410156 30.144531 22.613281 29.933594 22.285156 29.738281 L 22.570313 28.046875 C 22.976563 28.269531 23.664063 28.433594 24.234375 28.433594 C 25.164063 28.433594 25.613281 27.953125 25.613281 27.296875 C 25.613281 26.558594 25.164063 26.199219 24.308594 25.644531 C 22.929688 24.804688 22.40625 23.738281 22.40625 22.824219 C 22.40625 21.203125 23.484375 19.855469 25.601563 19.855469 C 26.261719 19.855469 26.890625 20.035156 27.191406 20.214844 L 26.875 21.910156 C 26.589844 21.730469 26.15625 21.566406 25.585938 21.566406 C 24.746094 21.566406 24.339844 22.074219 24.339844 22.613281 C 24.339844 23.214844 24.640625 23.53125 25.734375 24.191406 C 27.070313 25 27.566406 26.019531 27.566406 27.085938 C 27.5625 28.929688 26.199219 30.144531 24.21875 30.144531 Z M 30.128906 30.144531 C 29.320313 30.144531 28.523438 29.933594 28.195313 29.738281 L 28.480469 28.046875 C 28.886719 28.269531 29.574219 28.433594 30.144531 28.433594 C 31.074219 28.433594 31.523438 27.953125 31.523438 27.296875 C 31.523438 26.558594 31.074219 26.199219 30.21875 25.644531 C 28.839844 24.804688 28.316406 23.738281 28.316406 22.824219 C 28.316406 21.203125 29.394531 19.855469 31.511719 19.855469 C 32.171875 19.855469 32.800781 20.035156 33.101563 20.214844 L 32.785156 21.910156 C 32.5 21.730469 32.066406 21.566406 31.496094 21.566406 C 30.65625 21.566406 30.25 22.074219 30.25 22.613281 C 30.25 23.214844 30.550781 23.53125 31.644531 24.191406 C 32.980469 25 33.476563 26.019531 33.476563 27.085938 C 33.476563 28.929688 32.109375 30.144531 30.128906 30.144531 Z"/>
</svg>
